<?xml version="1.0" standalone="no"?>
<!DOCTYPE svg PUBLIC "-//W3C//DTD SVG 20010904//EN"
 "http://www.w3.org/TR/2001/REC-SVG-20010904/DTD/svg10.dtd">
<svg version="1.0" xmlns="http://www.w3.org/2000/svg"
 width="700.000000pt" height="700.000000pt" viewBox="0 0 700.000000 700.000000"
 preserveAspectRatio="xMidYMid meet">
<metadata>
Created by potrace 1.14, written by Peter Selinger 2001-2017
</metadata>
<g transform="translate(0.000000,700.000000) scale(0.100000,-0.100000)"
fill="#000000" stroke="none">
<path d="M1230 6989 c-165 -20 -376 -89 -524 -174 -347 -198 -588 -531 -678
-938 l-23 -102 0 -2275 0 -2275 23 -102 c63 -286 190 -520 388 -716 200 -197
446 -326 731 -384 83 -17 218 -18 2358 -18 l2270 0 102 23 c613 135 1052 620
1113 1230 8 75 10 773 8 2317 l-4 2210 -22 97 c-65 285 -190 513 -386 708
-197 196 -419 317 -704 382 l-97 22 -2240 2 c-1235 1 -2274 -2 -2315 -7z
m2102 -1760 c33 -12 76 -42 113 -77 33 -32 79 -75 102 -96 l42 -39 102 96
c161 151 54 137 1072 137 l862 0 77 -77 78 -78 0 -1471 0 -1471 -80 -77 -80
-76 -827 0 -828 0 -133 -125 -133 -125 -112 0 -112 1 -132 124 -133 125 -826
0 -826 0 -79 72 -78 73 -1 1480 0 1480 77 72 78 72 862 1 c848 0 863 0 915
-21z"/>
<path d="M1710 3625 l0 -1325 779 0 c766 0 780 0 828 -21 26 -11 62 -31 79
-44 l31 -24 8 1262 7 1261 -113 108 -114 107 -752 1 -753 0 0 -1325z m1250
595 l0 -150 -470 0 -470 0 0 143 c0 79 3 147 7 150 3 4 215 7 470 7 l463 0 0
-150z m0 -595 l0 -145 -470 0 -470 0 0 145 0 145 470 0 470 0 0 -145z m0 -590
l0 -145 -470 0 -470 0 0 145 0 145 470 0 470 0 0 -145z"/>
<path d="M3856 4849 l-106 -101 0 -1266 0 -1265 23 20 c12 11 46 29 76 41 53
22 57 22 832 22 l779 0 0 1325 0 1325 -749 0 -749 0 -106 -101z m1294 -629 l0
-150 -470 0 -470 0 0 143 c0 79 3 147 7 150 3 4 215 7 470 7 l463 0 0 -150z
m0 -595 l0 -145 -470 0 -470 0 0 145 0 145 470 0 470 0 0 -145z m0 -590 l0
-145 -470 0 -470 0 0 145 0 145 470 0 470 0 0 -145z"/>
</g>
</svg>
